<svg width="30" height="28" viewBox="0 0 30 28" fill="none" xmlns="http://www.w3.org/2000/svg">
<path d="M7.87498 1.07851C6.00021 1.07851 4.12544 1.83554 2.69748 3.33476C-0.158453 6.33318 -0.155489 11.1514 2.69748 14.153L14.715 26.7998C14.7862 26.8769 14.8872 26.9215 14.994 26.9215C15.0994 26.9215 15.2004 26.8769 15.2731 26.7998C19.284 22.5886 23.2919 18.3759 27.3024 14.1648C30.1583 11.1663 30.1583 6.34512 27.3024 3.34654C24.4465 0.347956 19.8035 0.348108 16.9474 3.34654L14.9999 5.37718L13.0524 3.33468C11.6244 1.83547 9.74975 1.07851 7.87498 1.07851ZM7.87498 1.82665C9.54489 1.82665 11.2193 2.50503 12.5064 3.85729L14.7271 6.19665C14.7983 6.27384 14.8992 6.31837 15.0061 6.31837C15.1115 6.31837 15.2125 6.27384 15.2852 6.19665L17.4939 3.86915C20.0693 1.16461 24.169 1.16461 26.7447 3.86915C29.32 6.57369 29.32 10.9379 26.7447 13.6424C22.8288 17.754 18.9159 21.8686 15.0004 25.9806L3.2561 13.6306C0.683688 10.9231 0.680724 6.56069 3.2561 3.85737C4.54305 2.5051 6.20514 1.82665 7.87498 1.82665Z" fill="white" stroke="white"/>
</svg>
