<svg width="34" height="34" viewBox="0 0 34 34" fill="none" xmlns="http://www.w3.org/2000/svg">
<rect x="1" y="1" width="32" height="32" stroke="white" stroke-width="2"/>
<path d="M29.2563 16.4568C28.9551 16.4568 28.7126 16.7006 28.7126 17.0006V28.7132H5.28762V5.28823H17.0003C17.3015 5.28823 17.544 5.04448 17.544 4.74449C17.544 4.44324 17.3003 4.20074 17.0003 4.20074H4.74394C4.44269 4.20074 4.2002 4.44449 4.2002 4.74449V29.2571C4.2002 29.5584 4.44395 29.8009 4.74394 29.8009H29.2566C29.5578 29.8009 29.8003 29.5571 29.8003 29.2571V17.0008C29.8003 16.6996 29.5563 16.4568 29.2563 16.4568Z" fill="white" stroke="white"/>
<path d="M29.4637 4.24128C29.3962 4.21628 29.3262 4.20003 29.2562 4.20003H21.9026C21.6013 4.20003 21.3589 4.44378 21.3589 4.74377C21.3589 5.04502 21.6026 5.28752 21.9026 5.28752H27.9413L16.6162 16.6162C16.405 16.8274 16.405 17.1724 16.6162 17.3874C16.7212 17.4924 16.8625 17.5474 16.9999 17.5474C17.1374 17.5474 17.2787 17.4924 17.3837 17.3874L28.7123 6.05878V12.0975C28.7123 12.3988 28.9561 12.6412 29.2561 12.6412C29.5573 12.6412 29.7998 12.3975 29.7998 12.0975V4.7439C29.7998 4.6739 29.7836 4.60265 29.7586 4.5364C29.7036 4.40515 29.5948 4.2964 29.4636 4.2414L29.4637 4.24128Z" fill="white" stroke="white"/>
</svg>
