<svg width="80" height="80" viewBox="0 0 80 80" fill="none" xmlns="http://www.w3.org/2000/svg">
<path opacity="0.3" d="M80 40C80 62.0914 62.0914 80 40 80C17.9086 80 0 62.0914 0 40C0 17.9086 17.9086 0 40 0C62.0914 0 80 17.9086 80 40ZM10.9071 40C10.9071 56.0675 23.9325 69.0929 40 69.0929C56.0675 69.0929 69.0929 56.0675 69.0929 40C69.0929 23.9325 56.0675 10.9071 40 10.9071C23.9325 10.9071 10.9071 23.9325 10.9071 40Z" fill="#2F2E30"/>
<circle cx="40" cy="40" r="29" fill="white"/>
<g clip-path="url(#clip0_350_486)">
<path d="M25 30.625C25 29.6304 25.3951 28.6766 26.0983 27.9733C26.8016 27.2701 27.7554 26.875 28.75 26.875H54.0625C54.3111 26.875 54.5496 26.9738 54.7254 27.1496C54.9012 27.3254 55 27.5639 55 27.8125C55 28.0611 54.9012 28.2996 54.7254 28.4754C54.5496 28.6512 54.3111 28.75 54.0625 28.75H53.125V32.5C53.6223 32.5 54.0992 32.6975 54.4508 33.0492C54.8025 33.4008 55 33.8777 55 34.375V50.3125C55 51.0584 54.7037 51.7738 54.1762 52.3012C53.6488 52.8287 52.9334 53.125 52.1875 53.125H29.6875C28.4443 53.125 27.252 52.6311 26.3729 51.7521C25.4939 50.873 25 49.6807 25 48.4375V30.625ZM26.875 33.8725V48.4375C26.875 49.1834 27.1713 49.8988 27.6988 50.4262C28.2262 50.9537 28.9416 51.25 29.6875 51.25H52.1875C52.4361 51.25 52.6746 51.1512 52.8504 50.9754C53.0262 50.7996 53.125 50.5611 53.125 50.3125V34.375H28.75C28.0917 34.375 27.4451 34.2017 26.875 33.8725ZM26.875 30.625C26.875 31.1223 27.0725 31.5992 27.4242 31.9508C27.7758 32.3025 28.2527 32.5 28.75 32.5H51.25V28.75H28.75C28.2527 28.75 27.7758 28.9475 27.4242 29.2992C27.0725 29.6508 26.875 30.1277 26.875 30.625Z" fill="black"/>
</g>
<defs>
<clipPath id="clip0_350_486">
<rect width="30" height="30" fill="white" transform="translate(25 25)"/>
</clipPath>
</defs>
</svg>
