<svg width="81" height="80" viewBox="0 0 81 80" fill="none" xmlns="http://www.w3.org/2000/svg">
<path opacity="0.3" d="M80.5 40C80.5 62.0914 62.5914 80 40.5 80C18.4086 80 0.5 62.0914 0.5 40C0.5 17.9086 18.4086 0 40.5 0C62.5914 0 80.5 17.9086 80.5 40ZM11.4071 40C11.4071 56.0675 24.4325 69.0929 40.5 69.0929C56.5675 69.0929 69.5929 56.0675 69.5929 40C69.5929 23.9325 56.5675 10.9071 40.5 10.9071C24.4325 10.9071 11.4071 23.9325 11.4071 40Z" fill="#2F2E30"/>
<circle cx="40.5" cy="40" r="29" fill="white"/>
<path d="M55.5 40.0495V42.8333H54.3333H53.8333V43.3333V52.8333H51.5V43.3333V42.8333H51H44.3333H43.8333V43.3333V52.8333H28.1667V43.3333V42.8333H27.6667H26.5V40.0495L28.0766 32.1667H53.9234L55.5 40.0495ZM30.5 50V50.5H31H41H41.5V50V43.3333V42.8333H41H31H30.5V43.3333V50ZM28.9264 39.902L28.8068 40.5H29.4167H52.5833H53.1932L53.0736 39.902L52.0736 34.902L51.9932 34.5H51.5833H30.4167H30.0068L29.9264 34.902L28.9264 39.902ZM28.1667 29.5V27.1667H53.8333V29.5H28.1667Z" fill="black" stroke="black"/>
</svg>
