<svg width="80" height="80" viewBox="0 0 80 80" fill="none" xmlns="http://www.w3.org/2000/svg">
<path opacity="0.3" d="M80 40C80 62.0914 62.0914 80 40 80C17.9086 80 0 62.0914 0 40C0 17.9086 17.9086 0 40 0C62.0914 0 80 17.9086 80 40ZM10.9071 40C10.9071 56.0675 23.9325 69.0929 40 69.0929C56.0675 69.0929 69.0929 56.0675 69.0929 40C69.0929 23.9325 56.0675 10.9071 40 10.9071C23.9325 10.9071 10.9071 23.9325 10.9071 40Z" fill="white"/>
<circle cx="40" cy="40" r="29" fill="white"/>
<g clip-path="url(#clip0_335_151)">
<path d="M33.3332 45C33.3332 43.159 31.8408 41.6666 29.9998 41.6666C28.1589 41.6666 26.6665 43.159 26.6665 45V48.3333C26.6665 50.1742 28.1589 51.6666 29.9998 51.6666C31.8408 51.6666 33.3332 50.1742 33.3332 48.3333V45Z" stroke="black" stroke-width="2" stroke-linecap="round" stroke-linejoin="round"/>
<path d="M53.3332 45C53.3332 43.159 51.8408 41.6666 49.9998 41.6666C48.1589 41.6666 46.6665 43.159 46.6665 45V48.3333C46.6665 50.1742 48.1589 51.6666 49.9998 51.6666C51.8408 51.6666 53.3332 50.1742 53.3332 48.3333V45Z" stroke="black" stroke-width="2" stroke-linecap="round" stroke-linejoin="round"/>
<path d="M26.6665 45V40C26.6665 36.4637 28.0713 33.0724 30.5717 30.5719C33.0722 28.0714 36.4636 26.6666 39.9998 26.6666C43.5361 26.6666 46.9274 28.0714 49.4279 30.5719C51.9284 33.0724 53.3332 36.4637 53.3332 40V45" stroke="black" stroke-width="2" stroke-linecap="round" stroke-linejoin="round"/>
<path d="M50 51.6666C50 52.9927 48.9464 54.2645 47.0711 55.2022C45.1957 56.1398 42.6522 56.6666 40 56.6666" stroke="black" stroke-width="2" stroke-linecap="round" stroke-linejoin="round"/>
</g>
<defs>
<clipPath id="clip0_335_151">
<rect width="40" height="40" fill="white" transform="translate(20 20)"/>
</clipPath>
</defs>
</svg>
