<svg width="25" height="25" viewBox="0 0 25 25" fill="none" xmlns="http://www.w3.org/2000/svg">
<path d="M12.5 23.6091C12.1441 23.6091 11.8009 23.4802 11.5335 23.246C10.5236 22.3629 9.54989 21.533 8.69082 20.8009L8.68643 20.7971C6.16778 18.6508 3.99284 16.7972 2.47955 14.9713C0.787924 12.9301 0 10.9947 0 8.88041C0 6.8262 0.704382 4.93106 1.98326 3.54385C3.27739 2.14023 5.05313 1.36719 6.98393 1.36719C8.42703 1.36719 9.74863 1.82342 10.9119 2.72312C11.499 3.17726 12.0312 3.73306 12.5 4.38136C12.969 3.73306 13.501 3.17726 14.0882 2.72312C15.2515 1.82342 16.5731 1.36719 18.0162 1.36719C19.9468 1.36719 21.7228 2.14023 23.0169 3.54385C24.2958 4.93106 25 6.8262 25 8.88041C25 10.9947 24.2122 12.9301 22.5206 14.9711C21.0073 16.7972 18.8326 18.6506 16.3143 20.7967C15.4537 21.5299 14.4785 22.3611 13.4662 23.2463C13.199 23.4802 12.8557 23.6091 12.5 23.6091ZM6.98393 2.83165C5.46702 2.83165 4.07352 3.43704 3.05976 4.53643C2.03094 5.65242 1.46427 7.19508 1.46427 8.88041C1.46427 10.6586 2.12516 12.249 3.60698 14.0369C5.03921 15.7652 7.16952 17.5806 9.6361 19.6827L9.64068 19.6865C10.503 20.4214 11.4805 21.2545 12.4979 22.1441C13.5214 21.2528 14.5004 20.4183 15.3644 19.6823C17.8308 17.5802 19.9609 15.7652 21.3932 14.0369C22.8748 12.249 23.5357 10.6586 23.5357 8.88041C23.5357 7.19508 22.969 5.65242 21.9402 4.53643C20.9266 3.43704 19.5329 2.83165 18.0162 2.83165C16.905 2.83165 15.8848 3.18489 14.9839 3.88145C14.1811 4.50248 13.6219 5.28754 13.294 5.83686C13.1254 6.11934 12.8286 6.28795 12.5 6.28795C12.1713 6.28795 11.8746 6.11934 11.7059 5.83686C11.3783 5.28754 10.819 4.50248 10.016 3.88145C9.1152 3.18489 8.09496 2.83165 6.98393 2.83165Z" fill="white"/>
</svg>
