<svg width="25" height="25" viewBox="0 0 25 25" fill="none" xmlns="http://www.w3.org/2000/svg">
<path d="M22.4271 15.1355L17.2188 20.3438C17.1472 20.4205 17.061 20.4821 16.9651 20.5248C16.8693 20.5675 16.7659 20.5905 16.661 20.5923C16.5561 20.5942 16.4519 20.5749 16.3546 20.5356C16.2573 20.4963 16.1689 20.4378 16.0948 20.3636C16.0206 20.2894 15.9621 20.2011 15.9228 20.1038C15.8835 20.0065 15.8642 19.9023 15.8661 19.7974C15.8679 19.6925 15.8909 19.5891 15.9336 19.4932C15.9763 19.3974 16.0378 19.3111 16.1146 19.2396L19.9885 15.3646H6.25C6.0428 15.3646 5.84409 15.2823 5.69757 15.1358C5.55106 14.9893 5.46875 14.7906 5.46875 14.5834C5.46875 14.3762 5.55106 14.1775 5.69757 14.0309C5.84409 13.8844 6.0428 13.8021 6.25 13.8021H21.875C22.0294 13.8023 22.1803 13.8482 22.3087 13.934C22.437 14.0199 22.5371 14.1418 22.5961 14.2845C22.6552 14.4272 22.6707 14.5841 22.6406 14.7356C22.6105 14.8871 22.5362 15.0262 22.4271 15.1355ZM19.5312 9.37504C19.5312 9.16784 19.4489 8.96912 19.3024 8.82261C19.1559 8.6761 18.9572 8.59379 18.75 8.59379H5.01146L8.88542 4.71879C8.96217 4.64727 9.02374 4.56101 9.06644 4.46518C9.10914 4.36935 9.1321 4.2659 9.13395 4.161C9.1358 4.0561 9.1165 3.9519 9.07721 3.85462C9.03792 3.75734 8.97943 3.66898 8.90525 3.59479C8.83106 3.5206 8.74269 3.46212 8.64541 3.42283C8.54814 3.38353 8.44394 3.36424 8.33904 3.36609C8.23414 3.36794 8.13069 3.3909 8.03486 3.4336C7.93902 3.4763 7.85277 3.53786 7.78125 3.61462L2.57292 8.82295C2.4638 8.93221 2.3895 9.07136 2.35941 9.22281C2.32932 9.37427 2.34479 9.53125 2.40387 9.67392C2.46294 9.81659 2.56297 9.93855 2.69132 10.0244C2.81967 10.1103 2.97058 10.1562 3.125 10.1563H18.75C18.9572 10.1563 19.1559 10.074 19.3024 9.92746C19.4489 9.78095 19.5312 9.58224 19.5312 9.37504Z" fill="white"/>
</svg>
