<svg width="30" height="30" viewBox="0 0 30 30" fill="none" xmlns="http://www.w3.org/2000/svg">
<g clip-path="url(#clip0_6_22)">
<path d="M25.6066 4.39336C22.7735 1.56029 19.0066 0 15.0001 0C10.9935 0 7.22654 1.56029 4.39348 4.39336C1.56041 7.22643 0 10.9934 0 15.0001C0 19.0068 1.56035 22.7735 4.39342 25.6066C7.22648 28.4397 10.9934 30 15 30C19.0066 30 22.7735 28.4397 25.6066 25.6066C28.4398 22.7735 30 19.0067 30 15C30 10.9933 28.4398 7.22654 25.6066 4.39336ZM24.3658 5.63432C25.1668 6.43523 25.8519 7.32105 26.4141 8.27098H20.5833C20.3262 6.97471 19.9933 5.77248 19.5901 4.70402C19.2149 3.70975 18.7871 2.86295 18.3182 2.17236C20.5864 2.7549 22.6665 3.93492 24.3658 5.63432ZM19.453 15C19.453 16.7023 19.3378 18.3543 19.1176 19.8932H10.8826C10.6623 18.3543 10.5472 16.7023 10.5472 15C10.5472 13.2679 10.6664 11.5876 10.8943 10.0257H19.1059C19.3337 11.5877 19.453 13.2679 19.453 15ZM15.0001 1.75482C16.0027 1.75482 17.1048 3.089 17.9483 5.32365C18.2834 6.21146 18.5664 7.20269 18.7935 8.27092H11.2066C11.4336 7.20269 11.7166 6.21146 12.0518 5.32365C12.8953 3.089 13.9974 1.75482 15.0001 1.75482ZM5.63432 5.63426C7.33365 3.93486 9.41373 2.75484 11.682 2.1723C11.213 2.86289 10.7853 3.70975 10.4101 4.70396C10.0068 5.77242 9.67389 6.97465 9.41684 8.27092H3.586C4.14826 7.32105 4.83334 6.43518 5.63432 5.63426ZM1.75488 15.0001C1.75488 13.2671 2.08623 11.5852 2.71758 10.0258H9.12311C8.90578 11.6015 8.79223 13.279 8.79223 15.0001C8.79223 16.6915 8.90174 18.3412 9.1118 19.8933H2.68518C2.07504 18.3567 1.75488 16.703 1.75488 15.0001ZM5.63432 24.3657C4.81066 23.5421 4.10971 22.6286 3.53877 21.648H9.40084C9.66006 22.9753 9.99838 24.2053 10.41 25.296C10.7853 26.2903 11.213 27.1371 11.6819 27.8276C9.41373 27.2451 7.33365 26.0651 5.63432 24.3657ZM15.0001 28.2452C13.9974 28.2452 12.8953 26.911 12.0519 24.6763C11.7083 23.7662 11.4197 22.7471 11.1899 21.648H18.8102C18.5804 22.7471 18.2918 23.7662 17.9483 24.6763C17.1048 26.9111 16.0027 28.2452 15.0001 28.2452ZM24.3658 24.3657C22.6664 26.0651 20.5864 27.2452 18.3182 27.8277C18.7871 27.1371 19.2148 26.2903 19.5901 25.296C20.0017 24.2053 20.34 22.9753 20.5992 21.6481H26.4613C25.8904 22.6287 25.1894 23.5421 24.3658 24.3657ZM20.8882 19.8932C21.0983 18.3412 21.2078 16.6914 21.2078 15C21.2078 13.279 21.0942 11.6014 20.877 10.0257H27.2825C27.9139 11.5851 28.2452 13.267 28.2452 15C28.2452 16.7031 27.9251 18.3567 27.3149 19.8932H20.8882Z" fill="#E6E6E6"/>
</g>
<defs>
<clipPath id="clip0_6_22">
<rect width="30" height="30" fill="white"/>
</clipPath>
</defs>
</svg>
